<svg xmlns="http://www.w3.org/2000/svg" xmlns:xlink="http://www.w3.org/1999/xlink" version="1.1" width="256" height="256" viewBox="0 0 256 256" xml:space="preserve">
<desc>Created with Fabric.js 1.7.22</desc>
<defs>
</defs>
<g transform="translate(128 128) scale(0.72 0.72)" style="">
	<g style="stroke: none; stroke-width: 0; stroke-dasharray: none; stroke-linecap: butt; stroke-linejoin: miter; stroke-miterlimit: 10; fill: none; fill-rule: nonzero; opacity: 1;" transform="translate(-175.05 -175.05000000000004) scale(3.89 3.89)" >
	<circle cx="45" cy="45" r="45" style="stroke: none; stroke-width: 1; stroke-dasharray: none; stroke-linecap: butt; stroke-linejoin: miter; stroke-miterlimit: 10; fill: rgb(32,196,203); fill-rule: nonzero; opacity: 1;" transform="  matrix(1 0 0 1 0 0) "/>
	<path d="M 69.334 32.467 l 0.005 0.712 c 0.013 1.965 -1.584 3.583 -3.549 3.596 l 2.95 -0.02 c 1.965 -0.013 3.583 1.584 3.596 3.548 l 0.005 0.712 c 0.013 1.965 -1.584 3.583 -3.548 3.596 l -0.155 0.001 c 1.965 -0.013 3.583 1.584 3.596 3.549 l 0.005 0.712 c 0.013 1.965 -1.584 3.583 -3.548 3.596 l -0.425 0.003 c 1.965 -0.013 3.583 1.584 3.596 3.548 l 0.005 0.712 c 0.013 1.965 -1.584 3.583 -3.548 3.596 l -14.935 0.075 c 1.676 15.062 -1.36 18.759 -7.442 17.387 c -0.464 -8.536 -5.948 -20.141 -11.452 -20.423 l 0.01 1.463 c 0.007 1.045 -0.945 1.906 -2.116 1.914 l -14.957 0.099 c -1.171 0.008 -2.134 -0.841 -2.141 -1.886 l -0.186 -28.032 c -0.007 -1.045 0.945 -1.906 2.116 -1.914 l 14.958 -0.099 c 1.171 -0.008 2.134 0.841 2.141 1.886 l 0.011 1.706 c 1.949 -2.172 6.726 -3.538 11.278 -3.454 l 20.137 -0.134 C 67.703 28.906 69.321 30.503 69.334 32.467 z" style="stroke: none; stroke-width: 1; stroke-dasharray: none; stroke-linecap: butt; stroke-linejoin: miter; stroke-miterlimit: 10; fill: rgb(27,167,173); fill-rule: nonzero; opacity: 1;" transform=" matrix(1 0 0 1 0 0) " stroke-linecap="round" />
	<path d="M 72.09 29.52 l 0.005 0.712 c 0.013 1.965 -1.584 3.583 -3.549 3.596 l 2.95 -0.02 c 1.965 -0.013 3.583 1.584 3.596 3.548 l 0.005 0.712 c 0.013 1.965 -1.584 3.583 -3.548 3.596 l -0.155 0.001 c 1.965 -0.013 3.583 1.584 3.596 3.549 l 0.005 0.712 c 0.013 1.965 -1.584 3.583 -3.548 3.596 l -0.425 0.003 c 1.965 -0.013 3.583 1.584 3.596 3.548 l 0.005 0.712 c 0.013 1.965 -1.584 3.583 -3.548 3.596 l -14.935 0.075 c 1.676 15.062 -1.36 18.759 -7.442 17.387 c -0.464 -8.536 -5.948 -20.141 -11.452 -20.423 l 0.01 1.463 c 0.007 1.045 -0.945 1.906 -2.116 1.914 l -14.957 0.099 c -1.171 0.008 -2.134 -0.841 -2.141 -1.886 l -0.186 -28.032 c -0.007 -1.045 0.945 -1.906 2.116 -1.914 l 14.958 -0.099 c 1.171 -0.008 2.134 0.841 2.141 1.886 l 0.011 1.706 c 1.949 -2.172 6.726 -3.538 11.278 -3.454 l 20.137 -0.134 C 70.459 25.958 72.077 27.555 72.09 29.52 z" style="stroke: none; stroke-width: 1; stroke-dasharray: none; stroke-linecap: butt; stroke-linejoin: miter; stroke-miterlimit: 10; fill: rgb(255,255,255); fill-rule: nonzero; opacity: 1;" transform=" matrix(1 0 0 1 0 0) " stroke-linecap="round" />
</g>
</g>
</svg>